<?xml version="1.0" standalone="no"?><!DOCTYPE svg PUBLIC "-//W3C//DTD SVG 20010904//EN"
    "http://www.w3.org/TR/2001/REC-SVG-20010904/DTD/svg10.dtd">
<svg height="201.000000pt"
    preserveAspectRatio="xMidYMid meet"
    version="1.0"
    viewBox="0 0 251.000000 201.000000"
    width="251.000000pt"
    xmlns="http://www.w3.org/2000/svg">
    <metadata>
        Created by potrace 1.15, written by Peter Selinger 2001-2017
    </metadata>
    <g
        fill="#000000"
        stroke="none"
        transform="translate(0.000000,201.000000) scale(0.100000,-0.100000)">
        <path d="M1344 1446 c-24 -11 -57 -55 -147 -199 -122 -193 -132 -221 -101
-265 23 -33 60 -45 100 -32 28 10 49 37 143 186 61 96 111 184 111 195 0 50
-42 84 -90 74 -23 -5 -41 -27 -94 -111 -36 -57 -60 -104 -53 -104 7 1 38 43
71 95 63 103 90 122 126 90 11 -10 20 -28 20 -39 0 -12 -49 -97 -108 -191
-120 -189 -139 -206 -190 -168 -43 32 -40 63 14 151 192 311 208 327 279 298
38 -16 55 -42 55 -82 0 -24 -103 -199 -248 -423 l-16 -23 65 7 64 7 -125 -126
c-68 -69 -126 -124 -127 -122 -2 2 11 33 29 70 17 36 29 68 26 71 -3 3 -25 1
-49 -4 -24 -5 -45 -9 -46 -7 -2 2 13 24 32 49 38 50 43 63 20 50 -13 -8 -95
-111 -95 -121 0 -3 23 -2 50 2 28 4 50 3 50 -2 0 -4 -22 -51 -50 -104 -49 -94
-58 -118 -42 -118 11 0 375 380 370 386 -3 2 -32 0 -64 -5 -33 -5 -60 -8 -62
-6 -1 1 52 87 118 191 102 161 120 195 120 229 0 49 -22 83 -66 101 -41 17
-50 17 -90 0z" />
    </g>
</svg>
